<svg xmlns="http://www.w3.org/2000/svg" viewBox="0 0 1600 900" preserveAspectRatio="xMidYMid slice">
  <defs>
    <linearGradient id="bg" x1="0" y1="0" x2="1" y2="1">
      <stop offset="0" stop-color="#262a2f"/>
      <stop offset="1" stop-color="#17181b"/>
    </linearGradient>
  </defs>
  <rect width="1600" height="900" fill="url(#bg)"/>
  <ellipse cx="800" cy="780" rx="620" ry="70" fill="#000" opacity="0.4"/>
  <rect x="160" y="560" width="1280" height="180" rx="14" fill="#101215" opacity="0.85"/>

  <g>
    <rect x="230" y="430" width="180" height="150" rx="14" fill="#7d1423"/>
    <rect x="230" y="430" width="180" height="46" rx="14" fill="#a31a2c"/>
    <rect x="470" y="440" width="180" height="150" rx="14" fill="#cc1f2e"/>
    <rect x="470" y="440" width="180" height="46" rx="14" fill="#e6452b"/>
    <rect x="710" y="420" width="180" height="150" rx="14" fill="#e6452b"/>
    <rect x="710" y="420" width="180" height="46" rx="14" fill="#f5821f"/>
    <rect x="950" y="430" width="180" height="150" rx="14" fill="#f5821f"/>
    <rect x="950" y="430" width="180" height="46" rx="14" fill="#ffb91d"/>
    <rect x="1190" y="410" width="180" height="150" rx="14" fill="#ffb91d"/>
    <rect x="1190" y="410" width="180" height="46" rx="14" fill="#ffe0a3"/>
  </g>

  <g opacity="0.85">
    <ellipse cx="320" cy="430" rx="90" ry="20" fill="#3a4046"/>
    <ellipse cx="560" cy="440" rx="90" ry="20" fill="#3a4046"/>
    <ellipse cx="800" cy="420" rx="90" ry="20" fill="#3a4046"/>
    <ellipse cx="1040" cy="430" rx="90" ry="20" fill="#3a4046"/>
    <ellipse cx="1280" cy="410" rx="90" ry="20" fill="#3a4046"/>
  </g>
</svg>